<?xml version="1.0" encoding="iso-8859-1"?>
<!-- Generator: Adobe Illustrator 19.0.0, SVG Export Plug-In . SVG Version: 6.00 Build 0)  -->
<svg version="1.1" id="Capa_1" xmlns="http://www.w3.org/2000/svg" xmlns:xlink="http://www.w3.org/1999/xlink" x="0px" y="0px"
	 viewBox="0 0 430.08 430.08" style="enable-background:new 0 0 430.08 430.08;" xml:space="preserve">
<path style="fill:#FFFFFF;" d="M354.987,215.607v165.769c0,13.701-11.107,24.812-24.811,24.812H31.638
	c-13.701,0-24.812-11.107-24.812-24.812V153.6h348.16"/>
<path style="fill:#602F75;" d="M330.172,413.013H31.638C14.196,413.013,0,398.821,0,381.375V153.6c0-3.768,3.058-6.827,6.827-6.827
	h348.16c3.772,0,6.827,3.058,6.827,6.827s-3.055,6.827-6.827,6.827H13.653v220.948c0,9.916,8.066,17.985,17.985,17.985h298.537
	c9.919,0,17.988-8.066,17.988-17.985V215.607c0-3.768,3.055-6.827,6.827-6.827c3.772,0,6.827,3.058,6.827,6.827v165.769
	C361.813,398.821,347.621,413.013,330.172,413.013z"/>
<path style="fill:#00E7FF;" d="M232.107,406.187H34.133v-27.109c0-18.637,17.347-33.744,38.745-33.744l60.242-10.144l60.242,10.141
	c21.398,0,38.745,15.107,38.745,33.744V406.187z"/>
<path style="fill:#602F75;" d="M232.107,413.013H34.133c-3.768,0-6.827-3.058-6.827-6.827v-27.109
	c0-22.193,20.125-40.284,44.984-40.567l59.696-10.052c0.754-0.126,1.512-0.126,2.266,0l59.699,10.052
	c24.856,0.283,44.981,18.374,44.981,40.567v27.109C238.933,409.955,235.878,413.013,232.107,413.013z M40.96,399.36h184.32v-20.282
	c0-14.845-14.319-26.918-31.921-26.918c-0.379,0-0.761-0.034-1.133-0.092l-59.105-9.953l-59.105,9.953
	c-0.372,0.061-0.754,0.092-1.133,0.092c-17.599,0-31.922,12.073-31.922,26.918L40.96,399.36L40.96,399.36z"/>
<path style="fill:#FFFFFF;" d="M157.119,335.189L157.119,335.189c-15.172,6.874-33.034,6.874-48.207,0l0,0V296.96h48.207V335.189z"
	/>
<path style="fill:#602F75;" d="M133.018,347.136c-9.25,0-18.497-1.911-26.924-5.731c-2.444-1.102-4.011-3.536-4.011-6.216V296.96
	c0-3.768,3.058-6.827,6.827-6.827h48.21c3.768,0,6.827,3.058,6.827,6.827v38.229c0,2.679-1.567,5.113-4.011,6.216
	C151.511,345.228,142.264,347.136,133.018,347.136z M157.119,335.189h0.068H157.119z M115.736,330.581
	c11.069,3.891,23.48,3.898,34.557,0v-26.795h-34.557V330.581z"/>
<rect x="6.827" y="119.467" style="fill:#EAEAEA;" width="348.16" height="34.133"/>
<path style="fill:#602F75;" d="M354.987,160.427H6.827C3.058,160.427,0,157.368,0,153.6v-34.133c0-3.768,3.058-6.827,6.827-6.827
	h348.16c3.772,0,6.827,3.058,6.827,6.827V153.6C361.813,157.368,358.758,160.427,354.987,160.427z M13.653,146.773H348.16v-20.48
	H13.653V146.773z"/>
<path style="fill:#FFFFFF;" d="M161.331,310.613h-56.634c-12.462,0-22.566-10.103-22.566-22.566v-51.176
	c0-27.139,21.999-49.138,49.138-49.138h3.492c27.139,0,49.138,21.999,49.138,49.138v51.173
	C183.9,300.51,173.797,310.613,161.331,310.613z"/>
<path style="fill:#602F75;" d="M161.335,317.44h-56.637c-16.207,0-29.392-13.186-29.392-29.392v-51.176
	c0-30.86,25.105-55.965,55.965-55.965h3.488c30.86,0,55.965,25.105,55.965,55.965v51.173
	C190.727,304.254,177.541,317.44,161.335,317.44z M131.27,194.56c-23.33,0-42.312,18.985-42.312,42.312v51.173
	c0,8.68,7.059,15.739,15.739,15.739h56.637c8.68,0,15.739-7.059,15.739-15.739v-51.173c0-23.327-18.985-42.312-42.315-42.312H131.27
	z"/>
<circle style="fill:#FFE600;" cx="348.16" cy="98.987" r="75.093"/>
<path style="fill:#602F75;" d="M348.16,180.907c-45.172,0-81.92-36.751-81.92-81.92s36.748-81.92,81.92-81.92
	s81.92,36.751,81.92,81.92S393.332,180.907,348.16,180.907z M348.16,30.72c-37.639,0-68.267,30.624-68.267,68.267
	s30.628,68.267,68.267,68.267s68.267-30.624,68.267-68.267S385.799,30.72,348.16,30.72z"/>
<g>
	<path style="fill:#EA3457;" d="M348.16,146.773c-3.772,0-6.827-3.058-6.827-6.827v-81.92c0-3.768,3.055-6.827,6.827-6.827
		c3.772,0,6.827,3.058,6.827,6.827v81.92C354.987,143.715,351.932,146.773,348.16,146.773z"/>
	<path style="fill:#EA3457;" d="M389.12,105.813H307.2c-3.772,0-6.827-3.058-6.827-6.827s3.055-6.827,6.827-6.827h81.92
		c3.772,0,6.827,3.058,6.827,6.827S392.892,105.813,389.12,105.813z"/>
</g>
<path style="fill:#602F75;" d="M314.027,215.04h-81.92c-3.772,0-6.827-3.058-6.827-6.827c0-3.768,3.055-6.827,6.827-6.827h81.92
	c3.772,0,6.827,3.058,6.827,6.827C320.853,211.982,317.798,215.04,314.027,215.04z"/>
<path style="fill:#EA3457;" d="M314.027,242.347h-81.92c-3.772,0-6.827-3.058-6.827-6.827s3.055-6.827,6.827-6.827h81.92
	c3.772,0,6.827,3.058,6.827,6.827S317.798,242.347,314.027,242.347z"/>
<path style="fill:#602F75;" d="M314.027,269.653h-81.92c-3.772,0-6.827-3.058-6.827-6.827c0-3.768,3.055-6.827,6.827-6.827h81.92
	c3.772,0,6.827,3.058,6.827,6.827C320.853,266.595,317.798,269.653,314.027,269.653z"/>
<g>
</g>
<g>
</g>
<g>
</g>
<g>
</g>
<g>
</g>
<g>
</g>
<g>
</g>
<g>
</g>
<g>
</g>
<g>
</g>
<g>
</g>
<g>
</g>
<g>
</g>
<g>
</g>
<g>
</g>
</svg>
